 Full Credits To Feel Free :)

 ######## ######## ######## ##          ######## ########  ######## ######## 
 ##       ##       ##       ##          ##       ##     ## ##       ##       
 ##       ##       ##       ##          ##       ##     ## ##       ##       
 ######   ######   ######   ##          ######   ########  ######   ######   
 ##       ##       ##       ##          ##       ##   ##   ##       ##       
 ##       ##       ##       ##          ##       ##    ##  ##       ##       
 ##       ######## ######## ########    ##       ##     ## ######## ########

Genre:Comedy
 Language:English
 IMDb: 
http://www.imdb.com/title/tt1411697/
 Source:Bambi/Imagine Thanks!
 Subtitles:Romana

 Format : MPEG-4
 Format profile : Base Media
 Codec ID : isom
 File size : 1.19 GiB
 Duration : 1h 38mn
 Overall bit rate : 1 724 Kbps

 Video
 ID : 1
 Format : AVC
 Format/Info : Advanced Video Codec
 Format profile : High@L4.1
 Format settings, CABAC : Yes
 Format settings, ReFrames : 3 frames
 Codec ID : avc1
 Codec ID/Info : Advanced Video Coding
 Duration : 1h 38mn
 Bit rate mode : Variable
 Bit rate : 1 500 Kbps
 Maximum bit rate : 6 530 Kbps
 Width : 720 pixels
 Height : 288 pixels
 Display aspect ratio : 2.500
 Frame rate mode : Constant
 Frame rate : 23.976 fps
 Color space : YUV
 Chroma subsampling : 4:2:0
 Bit depth : 8 bits
 Scan type : Progressive
 Bits/(Pixel*Frame) : 0.302
 Stream size : 1.03 GiB (87%)
 Writing library : x264

 Audio
 ID : 2
 Format : AAC
 Format/Info : Advanced Audio Codec
 Format version : Version 4
 Format profile : LC
 Format settings, SBR : No
 Codec ID : 40
 Duration : 1h 38mn
 Bit rate mode : Variable
 Bit rate : 224 Kbps
 Maximum bit rate : 253 Kbps
 Channel(s) : 2 channels
 Channel positions : Front: L R
 Sampling rate : 44.1 KHz
 Stream size : 159 MiB (13%)


 Plot:
 Two years after the bachelor party in Las Vegas, Phil, Stu, Alan, and Doug jet to Thailand for Stu's wedding. Stu's plan for a subdued pre-wedding brunch, however, goes seriously awry.



Greets:

 INK,CRYS,IMAGINE,LKRG,FXG,3Li,FLAWL3SS,TA,iLLUSiON,ViSiON,DTRG SAFCuk009,LU,TheFalcon007,MYSTiC,PrisM,Noir,WBZ,LAP,Rx,Kingdom,SAFCuk009+Fabreezy,HDLiTE,TWiZTED,ExtraTorrentRG.ELEKTRI4KA,MAGNAT,CM8
 And to all the other p2p grps past and present




==================================           
http://thepiratebay.org/user/hiest
==================================




Screenshots:
 
http://leetleech.org/images/79800013939700692833.png
 
http://leetleech.org/images/47161661471839783082.png
 
http://leetleech.org/images/23694437039297839780.png
 
http://leetleech.org/images/99188219326218034302.png
 
http://leetleech.org/images/86624208765766264442.png
 
http://leetleech.org/images/38366628315713109788.png

 Full Credits To Feel Free :)

 ######## ######## ######## ##          ######## ########  ######## ######## 
 ##       ##       ##       ##          ##       ##     ## ##       ##       
 ##       ##       ##       ##          ##       ##     ## ##       ##       
 ######   ######   ######   ##          ######   ########  ######   ######   
 ##       ##       ##       ##          ##       ##   ##   ##       ##       
 ##       ##       ##       ##          ##       ##    ##  ##       ##       
 ##       ######## ######## ########    ##       ##     ## ######## ########